<svg xmlns="http://www.w3.org/2000/svg" xmlns:xlink="http://www.w3.org/1999/xlink" version="1.1" x="0px" y="0px" viewBox="0 0 100 100" enable-background="new 0 0 100 100" xml:space="preserve"><g><path d="M58.203,96H40.796c-2.211,0-4.011-1.8-4.011-4.011v-7.236c0-0.358-0.744-0.91-1.94-1.438l-0.194-0.09   c-2.285-1.021-4.509-2.359-6.563-3.955c-0.524-0.407-1.227-0.518-1.633-0.281l-6.016,3.473c-2.092,1.207-4.493,0.42-5.558-1.424   L6.177,65.962c-0.536-0.928-0.678-2.008-0.401-3.043c0.278-1.036,0.941-1.901,1.87-2.437l0.938,1.286L7.787,60.4l0.414-0.238   l0.912,1.301L8.32,60.094l4.765-2.75c1.446-0.84,1.446-0.84,1.32-1.739c-0.201-1.366-0.29-2.776-0.29-4.503v-0.203   c0-1.726,0.089-3.136,0.281-4.435l0.013-0.094c0.122-0.874,0.122-0.874-1.377-1.743l-4.709-2.719l0.696-1.425l-0.79,1.371   l-0.44-0.254l0.699-1.423l-0.843,1.34c-1.914-1.105-2.573-3.563-1.467-5.478l8.704-15.076c0.714-1.238,2.046-2.006,3.476-2.006   c0.701,0,1.394,0.186,2.003,0.537l6.111,3.528c0.409,0.223,1.1,0.11,1.617-0.292c2.052-1.594,4.277-2.933,6.612-3.979l0.145-0.066   c1.196-0.528,1.94-1.079,1.94-1.438v-7.236c0-2.212,1.8-4.012,4.011-4.012h17.407c2.212,0,4.011,1.8,4.011,4.012v7.236   c0,0.358,0.745,0.909,1.942,1.438l0.171,0.079c2.323,1.042,4.538,2.376,6.586,3.966c0.516,0.401,1.205,0.513,1.616,0.292   l6.083-3.512c2.022-1.147,4.446-0.383,5.508,1.451l8.703,15.077c1.104,1.916,0.446,4.373-1.469,5.479l-4.01,2.316l-0.901-1.308   l0.794,1.369l-1.223,0.707c-1.544,0.895-1.544,0.895-1.418,1.795l0.016,0.116c0.188,1.314,0.272,2.698,0.272,4.387L84.884,51   l0.001,0.102c0,1.72-0.088,3.123-0.277,4.413l-0.001,0.016c-0.136,0.975-0.136,0.975,1.362,1.844l1.269,0.732l-0.692,1.426   l0.794-1.368l3.341,1.929l-0.698,1.425l0.79-1.372l0.605,0.351c0.905,0.521,1.569,1.387,1.846,2.423   c0.278,1.035,0.136,2.115-0.399,3.043L84.12,81.037c-0.715,1.238-2.048,2.006-3.478,2.006c-0.701,0-1.394-0.186-2.003-0.537   l-6.084-3.513c-0.436-0.252-1.119-0.13-1.642,0.275c-2.041,1.585-4.247,2.915-6.558,3.954l-0.227,0.103   c-1.171,0.518-1.916,1.069-1.916,1.428v7.236C62.214,94.2,60.415,96,58.203,96z M36.123,80.419   c1.643,0.727,3.827,1.965,3.827,4.334v7.236c0,0.466,0.379,0.847,0.846,0.847h17.407c0.467,0,0.848-0.381,0.848-0.847v-7.236   c0-2.369,2.185-3.607,3.827-4.334l0.129-0.06c2.102-0.939,4.107-2.147,5.965-3.589c1.52-1.182,3.647-1.392,5.153-0.525l2.512,1.449   l-0.679,1.437l0.785-1.373l1.374,0.793l-0.645,1.454l0.791-1.37l1.941,1.121c0.173,0.092,0.303,0.123,0.438,0.123   c0.304,0,0.586-0.163,0.736-0.425l8.703-15.074c0.113-0.196,0.144-0.424,0.084-0.643c-0.058-0.218-0.197-0.4-0.394-0.514   l-5.343-3.085c-2.381-1.38-3.312-2.363-2.978-4.897l0.016-0.122c0.174-1.184,0.253-2.446,0.253-4.018L81.72,51l0.001-0.102   c0-1.571-0.079-2.834-0.247-3.974l-0.018-0.145c-0.353-2.541,0.576-3.529,2.926-4.891l1.577-0.911l0.891,1.312l-0.792-1.369   l3.04-1.755l0.884,1.316l-0.789-1.371l0.523-0.303c0.46-0.266,0.6-0.785,0.366-1.19l-8.703-15.075   c-0.227-0.393-0.754-0.542-1.157-0.31l-3.479,2.008l-0.84-1.342l0.75,1.394l-2.604,1.5v0c-1.617,0.865-3.599,0.585-5.077-0.565   c-1.854-1.439-3.859-2.646-5.96-3.586l-0.085-0.041c-1.696-0.75-3.876-1.988-3.876-4.354v-7.236c0-0.467-0.381-0.847-0.848-0.847   H40.796c-0.467,0-0.846,0.379-0.846,0.847v7.236c0,2.369-2.184,3.607-3.827,4.333l-0.75-1.397l0.655,1.44   c-2.139,0.958-4.146,2.166-5.999,3.605c-1.52,1.182-3.648,1.392-5.153,0.526l-2.513-1.451l0.679-1.436l-0.785,1.374l-3.413-1.971   c-0.197-0.114-0.338-0.152-0.487-0.152c-0.303,0-0.584,0.163-0.735,0.424L8.917,37.62c-0.113,0.196-0.143,0.425-0.084,0.643   s0.199,0.4,0.394,0.514l5.34,3.083c2.408,1.396,3.334,2.386,2.971,4.977l-0.014,0.099c-0.167,1.133-0.245,2.396-0.245,3.964   l0.001,0.125c-0.001,1.646,0.077,2.909,0.245,4.052l0.014,0.107c0.362,2.573-0.565,3.562-2.921,4.929L9.285,63.19   c-0.253,0.146-0.393,0.329-0.452,0.547c-0.059,0.219-0.029,0.446,0.084,0.642l8.705,15.076c0.228,0.396,0.756,0.541,1.157,0.311   l3.479-2.009l0.841,1.341l-0.73-1.405l2.578-1.485c0.553-0.32,1.282-0.511,2.039-0.511c1.072,0,2.153,0.382,3.044,1.074   c1.844,1.434,3.839,2.636,5.931,3.574l0.087,0.041l-0.129,0.271l-0.434,1.211L36.123,80.419z"></path></g><g><path d="M49.5,78.996c-15.382,0-27.896-12.513-27.896-27.895c0-15.382,12.514-27.896,27.896-27.896s27.896,12.514,27.896,27.896   C77.396,66.483,64.882,78.996,49.5,78.996z M49.5,26.37c-13.637,0-24.731,11.095-24.731,24.732   c0,13.637,11.094,24.731,24.731,24.731c13.638,0,24.732-11.095,24.732-24.731C74.232,37.464,63.138,26.37,49.5,26.37z"></path></g><path fill-rule="evenodd" clip-rule="evenodd" d="M60.46,62.594l-2.454-2.454l8.588-8.587l-8.588-8.589l2.454-2.454l11.042,11.043  L60.46,62.594z M44.735,61.963l7.537-22.557h3.471l-7.537,22.557H44.735z M39.529,61.726L28.487,50.685l11.042-11.042l2.454,2.454  l-8.588,8.588l8.588,8.588L39.529,61.726z"></path></svg>