<svg xmlns="http://www.w3.org/2000/svg" xmlns:xlink="http://www.w3.org/1999/xlink" version="1.1" x="0px" y="0px" viewBox="0 0 100 125" enable-background="new 0 0 100 100" xml:space="preserve"><g><path fill="#000000" d="M36.6,81.1H11.5l-0.1-0.9C10,69.6,6.8,44.6,8.4,42.4L8.7,42h27.8V81.1z M13.3,79.1h21.3V44H9.9   C9.5,47.2,11.2,63.9,13.3,79.1z"/><path fill="#000000" d="M75.7,79.5H44.7L40,77.4h-4.5v-2h4.9l4.7,2.2h30.5c3.8,0,6.2-0.8,6.9-2.2c0.8-1.7-0.8-4.4-1.5-5.3l-0.7-0.9   l1-0.6c2.3-1.4,3.6-2.9,3.8-4.5c0.3-2.2-1.5-4-1.5-4l-1-1l1.3-0.6c1.8-0.9,2.9-2.1,3.4-3.6c0.7-2.6-0.9-5.3-1-5.3l-0.7-1.2l1.3-0.3   c0,0,4.9-1.3,4.9-4.9c0-1.2-0.4-5.1-5.9-5.1h-24l0.8-1.5c0-0.1,2.9-5.3,2.4-11c-0.3-4-2.4-7.9-5.1-9.7c-1.7-1.1-3.5-1.4-5.4-0.9   c-2.7,0.8-2.5,6.7-2.3,10.6c0,0.8,0.1,1.6,0.1,2.3c0,11.8-16,18.4-16.6,18.7l-0.8-1.9c0.2-0.1,15.4-6.4,15.4-16.9   c0-0.7,0-1.4-0.1-2.2c-0.2-4.8-0.4-11.3,3.8-12.6c2.5-0.7,4.9-0.3,7.1,1.1c3.2,2.2,5.5,6.7,5.9,11.2c0.4,4.5-1,8.6-2,10.7H86   c5.8,0,7.9,3.8,7.9,7.1c0,3.8-3.4,5.7-5.3,6.4c0.6,1.3,1.3,3.5,0.6,5.8c-0.5,1.7-1.6,3.2-3.3,4.3c0.7,1,1.6,2.7,1.3,4.7   c-0.3,2-1.6,3.9-3.9,5.4c0.9,1.4,2.2,4.2,1.1,6.5C83.3,78.4,80.4,79.5,75.7,79.5z"/><circle fill="#000000" cx="28.2" cy="72.7" r="3.3"/><path fill="#000000" d="M35.8,81.1c-0.8,0-1.5,0-1.5,0l0-2c0,0,1.5,0,2.4,0c0.2-0.5,0.2-2.2,0.2-2.7h2c0,2,0,4.7-2.1,4.7   C36.6,81.1,36.2,81.1,35.8,81.1z"/><path fill="#000000" d="M38.1,44.9l-1.9-0.5c0.1-0.2,0.1-0.4,0.1-0.4c-0.1,0-0.3,0-0.4,0l-0.5-1.9c0.3-0.1,1.6-0.4,2.4,0.5   C38.1,42.9,38.5,43.6,38.1,44.9z"/></g><text x="0" y="115" fill="#000000" font-size="5px" font-weight="bold" font-family="'Helvetica Neue', Helvetica, Arial-Unicode, Arial, Sans-serif">Created by Milky - Digital innovation</text><text x="0" y="120" fill="#000000" font-size="5px" font-weight="bold" font-family="'Helvetica Neue', Helvetica, Arial-Unicode, Arial, Sans-serif">from the Noun Project</text></svg>