<svg xmlns="http://www.w3.org/2000/svg" xmlns:xlink="http://www.w3.org/1999/xlink" version="1.1" x="0px" y="0px" viewBox="0 0 60 75" enable-background="new 0 0 60 60" xml:space="preserve"><rect x="-90" y="-331" display="none" fill="#000000" width="802" height="805"/><path d="M53.5615234,52.3691406C49.6943359,47.2133789,43.019043,42.4394531,38.3642578,41.5  c-1.4223633-0.284668-2.4995117-1.2563477-2.8120117-2.5390625c-0.1240234-0.496582-0.1689453-1.9633789-0.206543-3.2978516  c1.5030518-1.2149658,2.8546753-2.7781372,3.963623-4.5332031h2.4172363c2.4039917,0,4.3665161-1.8322754,4.619873-4.1699219  h0.9304199c0.8662109,0,1.5708008-0.7050781,1.5708008-1.5712891v-4.050293c0-0.8662109-0.7045898-1.5708008-1.5708008-1.5708008  h-0.8798828C46.397522,10.2215576,46.1273193,0.5283203,30.0844727,0.5c-0.0004883,0-0.168457,0-0.1689453,0  c-16.0430908,0.0283203-16.3130493,9.7214355-16.3125,19.2675781h-0.8798828c-0.8662109,0-1.5708008,0.7045898-1.5708008,1.5708008  v4.050293c0,0.8662109,0.7045898,1.5712891,1.5708008,1.5712891h1.3798828c0.2763672,0,0.5-0.2236328,0.5-0.5v-6.1923828  c0-0.0001831-0.0001221-0.0003052-0.0001221-0.0004883s0.0001221-0.0003052,0.0001221-0.0004883  C14.5966797,8.6069336,15.6245117,1.5249023,29.9174805,1.5L29.9165039,1l0.1660156,0.5  c14.2929688,0.0249023,15.3208008,7.1069336,15.3144531,18.7670898c0,0.000061,0.000061,0.0001831,0.000061,0.0002441  s-0.000061,0.0001831-0.000061,0.0002441v6.1923828c0,2.0234375-1.6464844,3.6699219-3.6704102,3.6699219h-1.8265991  c0.4996948-0.8994751,0.9422607-1.835022,1.2992554-2.7993164c1.0097656-0.1928711,1.9057617-1.4960938,2.2329102-3.3076172  c0.3066406-1.8613281-0.1303711-3.3994141-1.0512695-3.8964844c0.0097656-4.3046875-0.0097656-8.0239258-1.5146484-10.8447266  c-1.7202148-3.2241211-5.152832-4.7299805-10.8027344-4.7397461c-0.0004883,0-0.1264648,0-0.1269531,0  c-5.6499023,0.0097656-9.0825195,1.515625-10.8027344,4.7397461c-1.4946289,2.8012695-1.5244141,6.4882812-1.5146484,10.8447266  c-0.9208984,0.4975586-1.3574219,2.0361328-1.050293,3.9042969c0.3261719,1.8046875,1.222168,3.1074219,2.2319336,3.2998047  c1.215332,3.2827148,3.3291016,6.2919922,5.8535156,8.3325195c-0.0375977,1.3344727-0.0825195,2.8012695-0.2075195,3.3012695  C24.1352539,40.2436523,23.0581055,41.215332,21.6347656,41.5c-4.6538086,0.9394531-11.3291016,5.7133789-15.1962891,10.8686523  c-1.1196289,1.4926758-1.3847656,3.671875-0.6298828,5.1821289C6.4370117,58.8076172,7.671875,59.5,9.2861328,59.5h41.4277344  c1.6142578,0,2.8491211-0.6923828,3.4775391-1.9492188C54.9462891,56.0405273,54.6811523,53.8613281,53.5615234,52.3691406z   M13.6030273,25.9599609h-0.8798828c-0.3149414,0-0.5708008-0.2563477-0.5708008-0.5712891v-4.050293  c0-0.3149414,0.2558594-0.5708008,0.5708008-0.5708008h0.8798828V25.9599609z M47.8476562,21.3383789v4.050293  c0,0.3149414-0.2558594,0.5712891-0.5708008,0.5712891h-0.8798828v-5.1923828h0.8798828  C47.5917969,20.7675781,47.8476562,21.0234375,47.8476562,21.3383789z M53.296875,57.1035156  C52.840332,58.0170898,51.9467773,58.5,50.7138672,58.5H9.2861328c-1.2329102,0-2.1264648-0.4829102-2.5830078-1.3964844  C6.1083984,55.9140625,6.3334961,54.175293,7.2382812,52.96875c3.6767578-4.9013672,10.2236328-9.6064453,14.59375-10.4882812  c1.8076172-0.3613281,3.1821289-1.6181641,3.5854492-3.2763672c0.1552734-0.6206055,0.1967773-2.0932617,0.2402344-3.652832  l0.003418-0.1098633c0.0043945-0.1586914-0.0668945-0.3105469-0.1918945-0.4082031  c-2.5473633-1.9907227-4.675293-5.0336914-5.8388672-8.3491211c-0.0708008-0.2021484-0.2939453-0.3320312-0.5097656-0.3320312  c-0.0200195,0-0.0405273,0.0009766-0.0605469,0.003418c-0.4990234,0-1.2402344-1.027832-1.5058594-2.4946289  c-0.2739258-1.6674805,0.1982422-2.8105469,0.6577148-2.8959961c0.2368164-0.0444336,0.4086914-0.3486328,0.4082031-0.590332  c-0.0107422-4.2758789-0.0200195-7.9682617,1.3959961-10.6220703c1.527832-2.8632812,4.6806641-4.2011719,9.9223633-4.2104492  l-0.0009766-0.5l0.1240234,0.5c5.2416992,0.0092773,8.3945312,1.347168,9.9223633,4.2104492  c1.4160156,2.6538086,1.4067383,6.3461914,1.3959961,10.7197266c-0.0004883,0.2412109,0.1713867,0.4482422,0.4082031,0.4926758  c0.4594727,0.0854492,0.9316406,1.2285156,0.6586914,2.8881836c-0.2661133,1.4731445-1.0063477,2.5-1.5449219,2.5  c-0.0004883,0-0.0009766,0-0.0014648,0c-0.2290039-0.0258789-0.453125,0.109375-0.5307617,0.3310547  c-0.420166,1.1972046-0.9697266,2.3563843-1.6157227,3.4458008h-5.2402954  c-0.2158813-0.7067871-0.866394-1.2255859-1.6430054-1.2255859h-3.7412109c-0.9516602,0-1.7255859,0.7739258-1.7255859,1.7255859  s0.7739258,1.7255859,1.7255859,1.7255859h3.7412109c0.7766113,0,1.427124-0.5187988,1.6430054-1.2255859h4.6021118  c-1.0281372,1.5147705-2.2458496,2.8568115-3.5849609,3.9033203c-0.125,0.0976562-0.1962891,0.2495117-0.1918945,0.4082031  l0.003418,0.109375c0.043457,1.5595703,0.0849609,3.0327148,0.2392578,3.6499023  c0.4042969,1.6616211,1.7788086,2.918457,3.5854492,3.2797852c4.3710938,0.8818359,10.9179688,5.5869141,14.5947266,10.4887695  C53.6665039,54.175293,53.8916016,55.9140625,53.296875,57.1035156z M32.5961914,30.6298828  c0,0.3999023-0.3256836,0.7255859-0.7255859,0.7255859h-3.7412109c-0.3999023,0-0.7255859-0.3256836-0.7255859-0.7255859  s0.3256836-0.7255859,0.7255859-0.7255859h3.7412109C32.2705078,29.9042969,32.5961914,30.2299805,32.5961914,30.6298828z"/><text x="0" y="75" fill="#000000" font-size="5px" font-weight="bold" font-family="'Helvetica Neue', Helvetica, Arial-Unicode, Arial, Sans-serif">Created by Josh Sorosky</text><text x="0" y="80" fill="#000000" font-size="5px" font-weight="bold" font-family="'Helvetica Neue', Helvetica, Arial-Unicode, Arial, Sans-serif">from the Noun Project</text></svg>