<svg xmlns="http://www.w3.org/2000/svg" xmlns:xlink="http://www.w3.org/1999/xlink" version="1.1" x="0px" y="0px" viewBox="0 0 100 100" enable-background="new 0 0 100 100" xml:space="preserve"><polygon points="64.185,71.62 51.882,64.518 51.882,50.313 48.118,50.313 48.118,64.518 35.817,71.619 37.699,74.879 50,67.776   62.303,74.88 "></polygon><path d="M41.497,21.516c0.177,0.445,0.494,0.792,0.921,1.002c0,0,0.152,0.086,0.309,0.12c0.012,0.004,0.027,0.013,0.036,0.021  l0.004,0.005c0.01,0.009,0.017,0.027,0.017,0.041c0.04,2.608,2.84,7.501,7.216,7.501s7.178-4.894,7.217-7.503  c0-0.014,0.007-0.03,0.016-0.041c0.001-0.001,0.002-0.002,0.004-0.003c0.008-0.01,0.024-0.019,0.036-0.022  c0.155-0.033,0.311-0.12,0.311-0.12c0.426-0.209,0.743-0.557,0.92-1.003c0.261-0.663,0.449-2.191,0.493-2.673  c0.156-1.648,0.035-2.519-0.421-3.008l-0.201-0.215l0.006-0.293c0.005-0.369,0.016-0.719,0.024-1.042  c0.07-2.438,0.131-4.544-2.405-5.891l-0.234-0.125l-0.1-0.247c-0.979-2.428-4.154-2.622-5.198-2.686l-0.202-0.015  c-0.139-0.015-0.521-0.018-0.521-0.018c-2.967,0.084-5.075,0.822-6.428,2.258c-1.884,2.001-1.799,4.764-1.721,7.202l0.022,0.861  l-0.198,0.218c-0.444,0.484-0.567,1.38-0.414,2.997C41.039,19.231,41.225,20.821,41.497,21.516z M42.204,16.854  c0.043-0.155,0.209-0.469,0.469-0.455c0.386,0.027,0.662,0.959,0.767,1.205c0.064,0.148,0.201,0.078,0.189-0.02  c0,0-0.239-3.56-0.046-4.35c0.216-0.876,0.36-1.258,1.047-1.94c0.576-0.659,1.646-0.892,2.386-0.523l1.339,0.668  c0.855,0.508,2.239,0.506,3.094-0.008c0,0,0.583-0.298,1.305-0.664c0.724-0.369,1.806-0.133,2.422,0.525  c0,0,0.688,0.666,1.113,1.942c0.375,1.051,0.084,4.35,0.084,4.35c-0.012,0.098,0.122,0.168,0.188,0.02  c0.104-0.245,0.381-1.177,0.767-1.205c0.262-0.015,0.427,0.299,0.469,0.455c0.074,0.262,0.132,0.785,0.028,1.874  c-0.091,0.945-0.278,2.001-0.416,2.355c-0.086,0.219-0.247,0.366-0.479,0.432c-0.659,0.189-0.806,0.617-0.836,0.852  c-0.005,0.043-0.015,0.113-0.022,0.174c-0.009,0.062-0.016,0.164-0.019,0.227c-0.087,2.217-2.615,6.276-6.052,6.276  c-3.438,0-5.964-4.059-6.053-6.276c-0.002-0.063-0.008-0.165-0.017-0.227c-0.007-0.065-0.018-0.141-0.023-0.174  c-0.028-0.235-0.175-0.663-0.834-0.852c-0.231-0.065-0.392-0.213-0.48-0.432c-0.139-0.354-0.325-1.41-0.415-2.355  C42.073,17.638,42.13,17.116,42.204,16.854z"></path><path d="M65.199,31.718c-1.342-0.769-4.64-0.677-8.173-2.94c-0.013-0.008-0.037-0.026-0.037-0.026  c-0.356-0.272-0.936-0.333-0.897,0.175c0.179,1.271-1.267,6.177-3.166,10.265c-0.479-1.657-1.378-4.51-1.557-4.918  c-0.036-0.077-0.02-0.194,0.036-0.259c0.259-0.31,0.936-1.146,1.043-1.582c0.14-0.565-0.155-0.949-0.604-1.308  c-0.187-0.148-0.488-0.209-0.7-0.103l-0.768,0.342c-0.212,0.107-0.559,0.107-0.773,0l-0.765-0.342  c-0.214-0.106-0.515-0.046-0.7,0.103c-0.45,0.359-0.745,0.743-0.605,1.308c0.109,0.435,0.786,1.273,1.045,1.583  c0.054,0.065,0.07,0.183,0.036,0.261c-0.176,0.402-1.061,3.261-1.539,4.916c-1.9-4.087-3.346-8.994-3.167-10.265  c0.037-0.508-0.54-0.448-0.896-0.175c0,0-0.024,0.018-0.036,0.026c-3.534,2.263-6.832,2.172-8.175,2.94  c-1.37,0.784-2.189,5.007-2.638,8.436c4.535,4.622,10.85,7.493,17.837,7.493c6.988,0,13.303-2.871,17.837-7.493  C67.389,36.726,66.569,32.502,65.199,31.718z"></path><path d="M68.659,68.566c0.178,0.445,0.495,0.793,0.922,1.002c0,0,0.152,0.087,0.308,0.119c0.013,0.004,0.028,0.014,0.037,0.021  l0.004,0.005c0.009,0.01,0.017,0.027,0.017,0.041c0.04,2.608,2.839,7.501,7.216,7.501c4.375,0,7.178-4.894,7.217-7.502  c0-0.014,0.006-0.03,0.016-0.041c0.001-0.001,0.002-0.002,0.004-0.003c0.008-0.009,0.024-0.019,0.036-0.022  c0.155-0.032,0.311-0.119,0.311-0.119c0.426-0.209,0.743-0.557,0.92-1.003c0.261-0.662,0.448-2.191,0.492-2.674  c0.157-1.647,0.036-2.519-0.42-3.008l-0.201-0.215l0.006-0.293c0.004-0.369,0.016-0.719,0.024-1.042  c0.07-2.438,0.131-4.544-2.405-5.891l-0.234-0.126l-0.101-0.246c-0.979-2.428-4.153-2.622-5.197-2.686l-0.203-0.015  c-0.139-0.015-0.521-0.018-0.521-0.018c-2.967,0.084-5.076,0.822-6.428,2.258c-1.884,2.001-1.799,4.765-1.721,7.202l0.022,0.86  l-0.198,0.218c-0.444,0.484-0.568,1.381-0.414,2.997C68.202,66.281,68.387,67.872,68.659,68.566z M69.367,63.903  c0.043-0.155,0.209-0.469,0.469-0.454c0.386,0.027,0.662,0.959,0.767,1.204c0.064,0.148,0.201,0.078,0.188-0.02  c0,0-0.239-3.56-0.046-4.35c0.217-0.876,0.36-1.258,1.048-1.939c0.576-0.659,1.646-0.893,2.385-0.523l1.339,0.668  c0.856,0.509,2.24,0.506,3.094-0.008c0,0,0.584-0.299,1.305-0.664c0.725-0.369,1.807-0.133,2.423,0.525c0,0,0.688,0.665,1.113,1.941  c0.375,1.051,0.084,4.35,0.084,4.35c-0.012,0.098,0.122,0.168,0.187,0.02c0.105-0.245,0.381-1.177,0.768-1.204  c0.262-0.015,0.426,0.299,0.469,0.454c0.073,0.263,0.132,0.785,0.027,1.874c-0.09,0.945-0.277,2.002-0.415,2.355  c-0.086,0.219-0.247,0.366-0.48,0.432c-0.658,0.189-0.805,0.616-0.835,0.852c-0.006,0.043-0.015,0.114-0.023,0.174  c-0.008,0.062-0.016,0.164-0.018,0.227c-0.087,2.218-2.615,6.276-6.052,6.276c-3.438,0-5.965-4.059-6.053-6.276  c-0.002-0.063-0.008-0.165-0.017-0.227c-0.007-0.065-0.019-0.141-0.023-0.174c-0.028-0.235-0.176-0.662-0.834-0.852  c-0.231-0.065-0.393-0.213-0.48-0.432c-0.139-0.354-0.325-1.41-0.416-2.355C69.236,64.688,69.293,64.166,69.367,63.903z"></path><path d="M92.362,78.769c-1.342-0.769-4.64-0.678-8.174-2.94c-0.013-0.008-0.036-0.026-0.036-0.026  c-0.356-0.272-0.937-0.332-0.897,0.175c0.179,1.271-1.268,6.178-3.166,10.266c-0.479-1.657-1.378-4.51-1.558-4.919  c-0.035-0.077-0.019-0.194,0.037-0.259c0.259-0.31,0.936-1.147,1.043-1.582c0.14-0.564-0.155-0.949-0.604-1.308  c-0.188-0.148-0.488-0.209-0.701-0.103l-0.767,0.342c-0.212,0.106-0.559,0.106-0.773,0l-0.766-0.342  c-0.213-0.106-0.515-0.046-0.699,0.103c-0.45,0.358-0.745,0.743-0.605,1.308c0.109,0.435,0.786,1.272,1.045,1.583  c0.054,0.064,0.07,0.183,0.036,0.261c-0.176,0.402-1.061,3.261-1.539,4.916c-1.9-4.088-3.346-8.994-3.167-10.266  c0.037-0.507-0.54-0.447-0.896-0.175c0,0-0.024,0.019-0.036,0.026c-3.535,2.263-6.833,2.172-8.175,2.94  c-1.37,0.783-2.189,5.007-2.638,8.435c4.535,4.623,10.85,7.493,17.837,7.493S90.465,91.826,95,87.203  C94.552,83.775,93.732,79.552,92.362,78.769z"></path><path d="M14.333,68.566c0.178,0.445,0.495,0.793,0.922,1.002c0,0,0.152,0.087,0.309,0.119c0.012,0.004,0.027,0.014,0.036,0.021  l0.004,0.005c0.009,0.01,0.017,0.027,0.017,0.041c0.04,2.608,2.839,7.501,7.216,7.501c4.375,0,7.178-4.894,7.217-7.502  c0-0.014,0.006-0.03,0.016-0.041c0.001-0.001,0.002-0.002,0.004-0.003c0.008-0.009,0.024-0.019,0.036-0.022  c0.155-0.032,0.311-0.119,0.311-0.119c0.426-0.209,0.743-0.557,0.92-1.003c0.261-0.662,0.448-2.191,0.493-2.674  c0.156-1.647,0.035-2.519-0.421-3.008l-0.201-0.215l0.006-0.293c0.004-0.369,0.016-0.719,0.024-1.042  c0.07-2.438,0.131-4.544-2.405-5.891l-0.234-0.126L28.5,55.071c-0.979-2.428-4.153-2.622-5.197-2.686L23.1,52.371  c-0.139-0.015-0.521-0.018-0.521-0.018c-2.967,0.084-5.076,0.822-6.428,2.258c-1.884,2.001-1.799,4.765-1.721,7.202l0.022,0.86  l-0.198,0.218c-0.444,0.484-0.567,1.381-0.414,2.997C13.876,66.281,14.061,67.872,14.333,68.566z M15.041,63.903  c0.043-0.155,0.209-0.469,0.469-0.454c0.386,0.027,0.662,0.959,0.767,1.204c0.064,0.148,0.201,0.078,0.189-0.02  c0,0-0.24-3.56-0.047-4.35c0.217-0.876,0.36-1.258,1.048-1.939c0.576-0.659,1.646-0.893,2.386-0.523l1.339,0.668  c0.855,0.509,2.239,0.506,3.093-0.008c0,0,0.584-0.299,1.305-0.664c0.725-0.369,1.807-0.133,2.423,0.525  c0,0,0.688,0.665,1.113,1.941c0.375,1.051,0.084,4.35,0.084,4.35c-0.012,0.098,0.122,0.168,0.187,0.02  c0.105-0.245,0.382-1.177,0.768-1.204c0.262-0.015,0.426,0.299,0.469,0.454c0.073,0.263,0.132,0.785,0.027,1.874  c-0.09,0.945-0.277,2.002-0.415,2.355c-0.086,0.219-0.247,0.366-0.48,0.432c-0.658,0.189-0.805,0.616-0.835,0.852  c-0.006,0.043-0.015,0.114-0.023,0.174c-0.008,0.062-0.016,0.164-0.018,0.227c-0.087,2.218-2.615,6.276-6.052,6.276  c-3.438,0-5.965-4.059-6.053-6.276c-0.002-0.063-0.008-0.165-0.017-0.227c-0.007-0.065-0.019-0.141-0.023-0.174  c-0.028-0.235-0.176-0.662-0.834-0.852c-0.231-0.065-0.393-0.213-0.48-0.432c-0.139-0.354-0.325-1.41-0.416-2.355  C14.91,64.688,14.967,64.166,15.041,63.903z"></path><path d="M38.036,78.769c-1.342-0.769-4.64-0.678-8.174-2.94c-0.013-0.008-0.036-0.026-0.036-0.026  c-0.356-0.272-0.937-0.332-0.897,0.175c0.179,1.271-1.268,6.178-3.166,10.266c-0.479-1.657-1.378-4.51-1.558-4.919  c-0.035-0.077-0.019-0.194,0.037-0.259c0.259-0.31,0.936-1.147,1.043-1.582c0.14-0.564-0.155-0.949-0.604-1.308  c-0.188-0.148-0.488-0.209-0.701-0.103l-0.767,0.342c-0.212,0.106-0.559,0.106-0.773,0l-0.766-0.342  c-0.213-0.106-0.515-0.046-0.699,0.103c-0.45,0.358-0.745,0.743-0.605,1.308c0.109,0.435,0.786,1.272,1.045,1.583  c0.054,0.064,0.07,0.183,0.036,0.261c-0.176,0.402-1.061,3.261-1.539,4.916c-1.9-4.088-3.346-8.994-3.167-10.266  c0.037-0.507-0.54-0.447-0.896-0.175c0,0-0.024,0.019-0.036,0.026c-3.534,2.263-6.833,2.172-8.175,2.94  C6.268,79.552,5.448,83.775,5,87.203c4.535,4.623,10.85,7.493,17.837,7.493s13.302-2.87,17.837-7.493  C40.226,83.775,39.406,79.552,38.036,78.769z"></path></svg>