<svg xmlns="http://www.w3.org/2000/svg" xmlns:xlink="http://www.w3.org/1999/xlink" viewBox="0 0 100 100" version="1.1" xml:space="preserve" style="" x="0px" y="0px" fill-rule="evenodd" clip-rule="evenodd" stroke-linejoin="round" stroke-miterlimit="1.41421"><g><path d="M7,61l73,0l0,-49l-73,0l9.9476e-14,49ZM82,61c1.59815e-06,0.530434 -0.210711,1.03914 -0.585784,1.41422c-0.375072,0.375074 -0.883781,0.585789 -1.41421,0.585789c-10.8122,-7.92966e-12 -62.1878,-7.94387e-12 -73,-7.92966e-12c-0.530434,-5.69539e-07 -1.03914,-0.210715 -1.41421,-0.585789c-0.375072,-0.375074 -0.585785,-0.883783 -0.585784,-1.41422c-7.70228e-12,-8.38011 -7.70228e-12,-40.6199 -7.70228e-12,-49c-1.59815e-06,-0.530434 0.210711,-1.03914 0.585784,-1.41422c0.375072,-0.375074 0.883781,-0.585789 1.41421,-0.585789c10.8122,7.92966e-12 62.1878,7.93676e-12 73,7.93676e-12c0.530434,5.69539e-07 1.03914,0.210715 1.41421,0.585789c0.375072,0.375074 0.585785,0.883783 0.585784,1.41422c7.92966e-12,8.38011 7.92966e-12,40.6199 7.92966e-12,49Z" style="" fill="#000" fill-rule="nonzero"></path><path d="M27,19l51,0l0,-5l-51,0l0,5ZM26,20l0,-7l53,0l0,7l-53,0Z" style="" fill="#000" fill-rule="nonzero"></path><path d="M9,59l69,0l0,-37l-69,0l0,37ZM8,60l0,-39l71,0l0,39l-71,-1.42109e-14Z" style="" fill="#000" fill-rule="nonzero"></path><path d="M23,16.5l-5,2.5l0,-5l5,2.5Z" style="" fill="#000"></path><path d="M10,16.5l5,2.5l0,-5l-5,2.5Z" style="" fill="#000"></path><path d="M46,43.0379l3.12639e-13,8.57749c0,0.764702 -0.619913,1.38462 -1.38462,1.38462l-2.23077,0c-0.764702,0 -1.38462,-0.619913 -1.38462,-1.38462l-3.41061e-13,-8.57749c-0.955504,-0.245923 -2,-1.1133 -2,-2.14559l-2.84217e-14,-4.67692c0,-1.22352 0.991861,-2.21538 2.21538,-2.21538l4.56923,0c1.22352,0 2.21538,0.991861 2.21538,2.21538l0,4.67692c0,1.03228 -1.0445,1.89967 -2,2.14559Z" style="" fill="#000"></path><path d="M37.9738,68.4993c-0.0887325,-0.00932615 -0.170433,-0.0308073 -0.246152,-0.0799795c-0.179626,-0.116651 -0.266077,-0.341863 -0.210643,-0.548745c0.0233672,-0.0872077 0.0697088,-0.15784 0.12941,-0.224144l14,-14c0.0345084,-0.0310715 0.0421289,-0.0403868 0.0812339,-0.0657819c0.0880881,-0.0572051 0.193598,-0.0854765 0.298487,-0.0799795c0.252257,0.0132202 0.459927,0.22089 0.473147,0.473147c0.00274121,0.0523054 -0.00279564,0.104985 -0.0163518,0.155578c-0.0233672,0.0872077 -0.0697088,0.15784 -0.12941,0.224144l-14,14c-0.0529394,0.0476669 -0.107226,0.087463 -0.174369,0.113237c-0.0435304,0.0167098 -0.0555459,0.0173995 -0.100967,0.027054c-0.0524024,0.00550772 -0.0520493,0.0054706 -0.104385,0.00547061Z" style="" fill="#000" fill-rule="nonzero"></path><path d="M34,43.0379l3.12639e-13,8.57749c0,0.764702 -0.619913,1.38462 -1.38462,1.38462l-2.23077,0c-0.764702,0 -1.38462,-0.619913 -1.38462,-1.38462l-3.41061e-13,-8.57749c-0.955504,-0.245923 -2,-1.1133 -2,-2.14559l-2.84217e-14,-4.67692c0,-1.22352 0.991861,-2.21538 2.21538,-2.21538l4.56923,0c1.22352,0 2.21538,0.991861 2.21538,2.21538l0,4.67692c0,1.03228 -1.0445,1.89967 -2,2.14559Z" style="" fill="#000"></path><path d="M22,43.0379l3.12639e-13,8.57749c0,0.764702 -0.619913,1.38462 -1.38462,1.38462l-2.23077,0c-0.764702,0 -1.38462,-0.619913 -1.38462,-1.38462l-3.41061e-13,-8.57749c-0.955504,-0.245923 -2,-1.1133 -2,-2.14559l-2.84217e-14,-4.67692c0,-1.22352 0.991861,-2.21538 2.21538,-2.21538l4.56923,0c1.22352,0 2.21538,0.991861 2.21538,2.21538l0,4.67692c0,1.03228 -1.0445,1.89967 -2,2.14559Z" style="" fill="#000"></path><circle cx="43.5" cy="30.5" r="2.5" style="" fill="#000"></circle><circle cx="31.5" cy="30.5" r="2.5" style="" fill="#000"></circle><circle cx="19.5" cy="30.5" r="2.5" style="" fill="#000"></circle><path d="M93,43.0379l3.12639e-13,8.57749c0,0.764702 -0.619913,1.38462 -1.38462,1.38462l-2.23077,0c-0.764702,0 -1.38462,-0.619913 -1.38462,-1.38462l-3.41061e-13,-8.57749c-0.955504,-0.245923 -2,-1.1133 -2,-2.14559l-2.84217e-14,-4.67692c0,-1.22352 0.991861,-2.21538 2.21538,-2.21538l4.56923,0c1.22352,0 2.21538,0.991861 2.21538,2.21538l0,4.67692c0,1.03228 -1.0445,1.89967 -2,2.14559Z" style="" fill="#000"></path><path d="M36,80.0379l3.12639e-13,8.57749c0,0.764702 -0.619913,1.38462 -1.38462,1.38462l-2.23077,0c-0.764702,0 -1.38462,-0.619913 -1.38462,-1.38462l-3.41061e-13,-8.57749c-0.955504,-0.245923 -2,-1.1133 -2,-2.14559l-2.84217e-14,-4.67692c0,-1.22352 0.991861,-2.21538 2.21538,-2.21538l4.56923,0c1.22352,0 2.21538,0.991861 2.21538,2.21538l0,4.67692c0,1.03228 -1.0445,1.89967 -2,2.14559Z" style="" fill="#000"></path><circle cx="90.5" cy="30.5" r="2.5" style="" fill="#000"></circle><circle cx="33.5" cy="67.5" r="2.5" style="" fill="#000"></circle><path d="M66.4716,52.9884c0,-0.127923 0.0234303,-0.253953 0.0712099,-0.372857c0.0954981,-0.237656 0.282599,-0.432874 0.515988,-0.538372c0.130004,-0.0587657 0.269576,-0.0869712 0.411901,-0.0887715c0.152068,-0.00192351 0.303732,-0.00633328 0.451978,0.0322671c0.304291,0.0792313 0.558671,0.303114 0.675911,0.594876c0.0476199,0.118507 0.0712099,0.244276 0.0712099,0.371795c-0.732204,0.0278212 -1.46547,0.00106193 -2.1982,0.00106193ZM65.5542,52.7098c-0.238844,-0.183118 -0.416614,-0.436657 -0.49905,-0.726958c-0.0318607,-0.112198 -0.0476518,-0.226934 -0.052074,-0.343318l-0.000452226,-0.0357375l-9.9476e-14,-0.941138l0.00576014,-0.00021909c0.114725,0.00538346 0.22408,0.0196137 0.332883,0.0586c0.268452,0.0961919 0.487064,0.307583 0.592214,0.572654c0.0426173,0.107433 0.0605111,0.216249 0.0697433,0.330728c0.00166478,0.043769 0.0116676,0.0902487 0.0179009,0.132413c0.00532094,0.0859004 0.00710511,0.168462 -0.00585344,0.253968c-0.0297596,0.196368 -0.118843,0.381929 -0.25346,0.527957c-0.0512173,0.0555588 -0.067421,0.0660365 -0.125124,0.114508c-0.0465369,0.0327871 -0.0449614,0.0346123 -0.0824875,0.0565419ZM69.5554,52.6228l-0.0116372,-0.00531108l-0.0739535,-0.0416642c-0.0622838,-0.0424251 -0.0794587,-0.0512206 -0.136002,-0.101349c-0.105976,-0.0939522 -0.191459,-0.21041 -0.249328,-0.339674c-0.0462758,-0.103367 -0.07479,-0.214522 -0.0839868,-0.327401c-0.00530566,-0.0651201 0.000481339,-0.128341 0.00192714,-0.193163c0.00258102,-0.11572 0.00302594,-0.226744 0.032479,-0.339859c0.0792313,-0.304291 0.303114,-0.558671 0.594876,-0.675911c0.118903,-0.0477793 0.244932,-0.0712099 0.372855,-0.0712099c1.42109e-14,0.382613 0.0127258,0.7655 -0.00180165,1.14784c-0.0196752,0.31048 -0.134974,0.597318 -0.33584,0.834876c-0.0349091,0.0393415 -0.0710822,0.0769855 -0.109587,0.11283ZM65.0027,49.6616l-8.52651e-14,-2.1982l0.042441,0c0.0750887,0.00639099 0.0943696,0.00562385 0.168238,0.0215437c0.110711,0.02386 0.21719,0.0666469 0.313628,0.126026c0.242827,0.149514 0.413115,0.401465 0.461309,0.682528c0.020727,0.12088 0.015921,0.247496 0.0143841,0.369001c-0.00252533,0.199646 -0.0593169,0.394009 -0.17149,0.559975c-0.111217,0.164551 -0.271365,0.293861 -0.455653,0.367914c-0.0802466,0.0322457 -0.161012,0.0494663 -0.245839,0.0640114c-0.0634311,0.00539878 -0.0628689,0.00719853 -0.127018,0.00719853ZM69.9602,49.5254c-0.085755,-0.00729883 -0.167689,-0.0176081 -0.250382,-0.0429322c-0.244899,-0.0749994 -0.45528,-0.244871 -0.580191,-0.468472c-0.0836105,-0.14967 -0.124824,-0.316749 -0.126986,-0.487695c-0.0023098,-0.182607 -0.00435931,-0.359129 0.0571226,-0.53314c0.104752,-0.296476 0.3494,-0.530953 0.650055,-0.623027c0.0953197,-0.0291913 0.193313,-0.0429322 0.292821,-0.0429322l8.52651e-14,2.1982c-0.0141464,0 -0.0282928,0 -0.0424393,0ZM65.0027,46.4616l-8.52651e-14,-2.1982l0.042441,0c0.0750887,0.00639099 0.0943696,0.00562385 0.168238,0.0215437c0.110711,0.02386 0.21719,0.0666469 0.313628,0.126026c0.242827,0.149514 0.413115,0.401465 0.461309,0.682528c0.020727,0.12088 0.015921,0.247496 0.0143841,0.369001c-0.00252533,0.199646 -0.0593169,0.394009 -0.17149,0.559975c-0.111217,0.164551 -0.271365,0.293861 -0.455653,0.367914c-0.0802466,0.0322457 -0.161012,0.0494663 -0.245839,0.0640114c-0.0634311,0.00539878 -0.0628689,0.00719853 -0.127018,0.00719853ZM69.9602,46.3254c-0.085755,-0.00729883 -0.167689,-0.0176081 -0.250382,-0.0429322c-0.244899,-0.0749994 -0.45528,-0.244871 -0.580191,-0.468472c-0.0836105,-0.14967 -0.124824,-0.316749 -0.126986,-0.487695c-0.0023098,-0.182607 -0.00435931,-0.359129 0.0571226,-0.53314c0.104752,-0.296476 0.3494,-0.530953 0.650055,-0.623027c0.0953197,-0.0291913 0.193313,-0.0429322 0.292821,-0.0429322l7.10543e-14,2.1982c-0.0141464,0 -0.0282928,0 -0.0424393,0ZM70.0027,43.6554c-0.111155,-0.0759869 -0.207175,-0.166793 -0.282327,-0.279261c-0.0629216,-0.0941649 -0.109636,-0.198981 -0.137593,-0.308729c-0.0849125,-0.333328 0.011446,-0.695533 0.250764,-0.942604c0.0590833,-0.0609975 0.125943,-0.114401 0.19849,-0.158543c0.0523965,-0.031881 0.108432,-0.057089 0.162162,-0.0865197c0.0609632,-0.033393 0.121096,-0.0665028 0.186614,-0.0907875c0.106193,-0.0393609 0.218986,-0.0604854 0.332225,-0.0622209c0.227258,-0.00348294 0.452545,0.072253 0.631548,0.212311c0.0594309,0.0465009 0.11073,0.0992579 0.15886,0.157032c-0.0451719,0.0529129 -0.0934478,0.102924 -0.142429,0.152282c-0.368327,0.358054 -0.819215,0.62431 -1.31346,0.765928l-0.0448501,0.0119811c1.42109e-14,0.20971 1.42109e-14,0.41942 2.84217e-14,0.62913ZM65.0027,43.4465l-1.42109e-14,-0.420151c-0.0759478,-0.0202884 -0.1507,-0.0432296 -0.225035,-0.0687998c-0.54163,-0.196613 -1.03777,-0.53719 -1.38655,-0.99913l0.0273977,-0.0299012c0.0633146,-0.0582963 0.126268,-0.111742 0.200803,-0.155603c0.171173,-0.100727 0.371366,-0.148596 0.569588,-0.136197c0.14135,0.00884153 0.280396,0.048034 0.405556,0.114313c0.044187,0.0233993 0.0848896,0.0511082 0.127373,0.077055c0.0939096,0.0573554 0.186893,0.110984 0.267291,0.187966c0.248447,0.23789 0.358368,0.596212 0.28606,0.932499c-0.0304735,0.141725 -0.0928871,0.264828 -0.173375,0.384036c-0.0475936,0.0590009 -0.0468246,0.0593111 -0.0991054,0.113912ZM71.9602,41.2262c-0.085755,-0.00729883 -0.167689,-0.0176081 -0.250382,-0.0429322c-0.244899,-0.0749994 -0.45528,-0.244871 -0.580191,-0.468472c-0.0836105,-0.14967 -0.124824,-0.316749 -0.126986,-0.487695c-0.0023098,-0.182607 -0.00435931,-0.359129 0.0571226,-0.53314c0.104752,-0.296476 0.3494,-0.530953 0.650055,-0.623027c0.0953215,-0.0291919 0.193316,-0.0429322 0.292826,-0.0429322c0,0.633668 0.00922491,1.26741 -0.000760688,1.901c-0.00226571,0.0480339 -0.0059723,0.0954419 -0.0112028,0.143244c-0.00590897,0.0421175 -0.00685468,0.0522886 -0.014643,0.0940964c-0.00290181,0.015577 -0.00616336,0.0310853 -0.00939601,0.046597c-0.00198067,0.00950415 0.00137477,0.0132579 -0.00644187,0.0132579ZM63.0122,41.0497c-0.0061604,-0.0563004 -0.00861081,-0.112418 -0.00950293,-0.169022l-1.42109e-14,-2.02918c0.0995094,0 0.197503,0.0137406 0.292824,0.0429322c0.300654,0.0920744 0.545303,0.326551 0.650055,0.623027c0.0614819,0.174011 0.0594324,0.350532 0.0571226,0.53314c-0.0021623,0.170946 -0.0433754,0.338025 -0.126986,0.487695c-0.110846,0.198423 -0.289263,0.355449 -0.500158,0.440194c-0.0802466,0.0322457 -0.161012,0.0494663 -0.245839,0.0640114c-0.0589638,0.00501856 -0.0584572,0.00719853 -0.117516,0.00719853ZM71.9602,38.0262c-0.085755,-0.00729883 -0.167689,-0.0176081 -0.250382,-0.0429322c-0.189905,-0.0581576 -0.360442,-0.173421 -0.485213,-0.327947c-0.144067,-0.178424 -0.219075,-0.399775 -0.221964,-0.62822c-0.00153691,-0.121504 -0.00634294,-0.24812 0.0143841,-0.369001c0.0481932,-0.281064 0.218482,-0.533014 0.461309,-0.682528c0.0964379,-0.0593792 0.202917,-0.102166 0.313628,-0.126026c0.0738685,-0.0159199 0.0931493,-0.0151527 0.168238,-0.0215437l0.0105506,0c0.0206659,0.124734 0.0302947,0.249446 0.0318938,0.375814l0,1.82238c-0.0141481,0 -0.0282962,0 -0.0424443,0ZM63.0027,37.8497c0,-0.567709 -0.00645969,-1.13546 0.000723561,-1.70313c0.00215321,-0.0566686 0.00569817,-0.112843 0.0107142,-0.16933c0.0125037,-0.109383 0.0313147,-0.216529 0.0574165,-0.323494l0.0581647,0.00495054c0.0848271,0.0145451 0.165592,0.0317657 0.245839,0.0640114c0.184288,0.0740531 0.344436,0.203364 0.455653,0.367914c0.112173,0.165966 0.168965,0.360328 0.17149,0.559975c0.00153691,0.121504 0.00634294,0.24812 -0.0143841,0.369001c-0.0432854,0.252441 -0.185059,0.482696 -0.390983,0.634996c-0.0910548,0.0673438 -0.193522,0.119007 -0.30181,0.15217c-0.0722523,0.022127 -0.0915287,0.0229978 -0.165805,0.0357337c-0.0634313,0.0053988 -0.0628691,0.00719853 -0.127019,0.00719853ZM64.3055,35.1791c-0.0859368,-0.00469672 -0.168146,-0.0125182 -0.251568,-0.0353248c-0.215857,-0.0590132 -0.396512,-0.18813 -0.533971,-0.362665c0.0420499,-0.049731 0.086068,-0.0972213 0.13156,-0.143811c0.101789,-0.0993908 0.209867,-0.190799 0.327871,-0.270518c0.269823,-0.182283 0.579342,-0.303653 0.901261,-0.352827c0.204669,-0.0312636 0.409089,-0.0255262 0.615831,-0.0255262l0.00641505,0.0762661c-0.00011387,0.114851 -0.00931155,0.224744 -0.0432646,0.335221c-0.0583459,0.189847 -0.173778,0.36027 -0.328428,0.484888c-0.0661242,0.0532834 -0.139034,0.098076 -0.216451,0.132978c-0.0466804,0.0210452 -0.0947945,0.0359834 -0.142207,0.0546773c-0.0447292,0.017636 -0.0874336,0.0380079 -0.133241,0.0535696c-0.0715486,0.0243064 -0.0907898,0.0257609 -0.164646,0.0407419c-0.0843196,0.00975827 -0.0840419,0.00974985 -0.169163,0.0123306ZM70.8456,35.2572c-0.0859865,-0.00367587 -0.168283,-0.0105206 -0.251969,-0.0323349c-0.0836865,-0.0218144 -0.158852,-0.0560148 -0.235691,-0.0947823l0.00799333,0.00446817c-0.0580106,-0.0306076 -0.11925,-0.054722 -0.176873,-0.0860005c-0.0497787,-0.0270202 -0.0971719,-0.0582206 -0.141668,-0.0932647c-0.224028,-0.176439 -0.364223,-0.446296 -0.379785,-0.731036c-0.00437396,-0.0800312 0.00315797,-0.157068 0.0156874,-0.235874c0.0728671,0 0.145245,0.000117372 0.218022,0.00288264c0.166933,0.0105786 0.331376,0.0354094 0.492485,0.0811593c0.32733,0.0929514 0.631329,0.262658 0.883086,0.491475c0.105316,0.0957199 0.199186,0.201537 0.285692,0.314368l0.0310897,0.0426274c-0.050951,0.0531327 -0.0616581,0.067606 -0.119788,0.114517c-0.0881337,0.0711238 -0.188331,0.127062 -0.295125,0.164762c-0.0712549,0.0251544 -0.0904774,0.0268373 -0.16415,0.0426943c-0.0844734,0.0107941 -0.0841978,0.0107589 -0.169005,0.0143386ZM67.4909,34.9884c-0.143707,-0.0061046 -0.279806,-0.0290607 -0.411901,-0.0887715c-0.355221,-0.16057 -0.587198,-0.522083 -0.587198,-0.911228l2.1982,0c0,0.359208 -0.197264,0.697525 -0.511404,0.873014c-0.126556,0.0706982 -0.260217,0.105114 -0.402889,0.123383c-0.142511,0.00605377 -0.142045,0.00360251 -0.284806,0.00360251Z" style="" fill="#000" fill-rule="nonzero"></path><path d="M54.4651,52.9829c0,-0.127923 0.0234303,-0.253953 0.0712099,-0.372857c0.0954981,-0.237656 0.282599,-0.432874 0.515988,-0.538372c0.130004,-0.0587657 0.269576,-0.0869712 0.411901,-0.0887715c0.152068,-0.00192351 0.303732,-0.00633328 0.451978,0.0322671c0.304291,0.0792313 0.558671,0.303114 0.675911,0.594876c0.0476199,0.118507 0.0712099,0.244276 0.0712099,0.371795c-0.732204,0.0278212 -1.46547,0.00106193 -2.1982,0.00106193ZM53.5477,52.7043c-0.238844,-0.183118 -0.416614,-0.436657 -0.49905,-0.726958c-0.0318607,-0.112198 -0.0476518,-0.226934 -0.052074,-0.343318l-0.000452226,-0.0357375l-9.9476e-14,-0.941138l0.00576014,-0.00021909c0.114725,0.00538346 0.22408,0.0196137 0.332883,0.0586c0.268452,0.0961919 0.487064,0.307583 0.592214,0.572654c0.0426173,0.107433 0.0605111,0.216249 0.0697433,0.330728c0.00166478,0.043769 0.0116676,0.0902487 0.0179009,0.132413c0.00532094,0.0859004 0.00710511,0.168462 -0.00585344,0.253968c-0.0297596,0.196368 -0.118843,0.381929 -0.25346,0.527957c-0.0512173,0.0555588 -0.067421,0.0660365 -0.125124,0.114508c-0.0465369,0.0327871 -0.0449614,0.0346123 -0.0824875,0.0565419ZM57.5489,52.6172l-0.0116372,-0.00531108l-0.0739535,-0.0416642c-0.0622838,-0.0424251 -0.0794587,-0.0512206 -0.136002,-0.101349c-0.105976,-0.0939522 -0.191459,-0.21041 -0.249328,-0.339674c-0.0462758,-0.103367 -0.07479,-0.214522 -0.0839868,-0.327401c-0.00530566,-0.0651201 0.000481339,-0.128341 0.00192714,-0.193163c0.00258102,-0.11572 0.00302594,-0.226744 0.032479,-0.339859c0.0792313,-0.304291 0.303114,-0.558671 0.594876,-0.675911c0.118903,-0.0477793 0.244932,-0.0712099 0.372855,-0.0712099c1.42109e-14,0.382613 0.0127258,0.7655 -0.00180165,1.14784c-0.0196752,0.31048 -0.134974,0.597318 -0.33584,0.834876c-0.0349091,0.0393415 -0.0710822,0.0769855 -0.109587,0.11283ZM52.9961,49.656l-8.52651e-14,-2.1982l0.042441,0c0.0750887,0.00639099 0.0943696,0.00562385 0.168238,0.0215437c0.110711,0.02386 0.21719,0.0666469 0.313628,0.126026c0.242827,0.149514 0.413115,0.401465 0.461309,0.682528c0.020727,0.12088 0.015921,0.247496 0.0143841,0.369001c-0.00252533,0.199646 -0.0593169,0.394009 -0.17149,0.559975c-0.111217,0.164551 -0.271365,0.293861 -0.455653,0.367914c-0.0802466,0.0322457 -0.161012,0.0494663 -0.245839,0.0640114c-0.0634311,0.00539878 -0.0628689,0.00719853 -0.127018,0.00719853ZM57.9537,49.5199c-0.085755,-0.00729883 -0.167689,-0.0176081 -0.250382,-0.0429322c-0.244899,-0.0749994 -0.45528,-0.244871 -0.580191,-0.468472c-0.0836105,-0.14967 -0.124824,-0.316749 -0.126986,-0.487695c-0.0023098,-0.182607 -0.00435931,-0.359129 0.0571226,-0.53314c0.104752,-0.296476 0.3494,-0.530953 0.650055,-0.623027c0.0953197,-0.0291913 0.193313,-0.0429322 0.292821,-0.0429322l8.52651e-14,2.1982c-0.0141464,0 -0.0282928,0 -0.0424393,0ZM52.9961,46.456l-8.52651e-14,-2.1982l0.042441,0c0.0750887,0.00639099 0.0943696,0.00562385 0.168238,0.0215437c0.110711,0.02386 0.21719,0.0666469 0.313628,0.126026c0.242827,0.149514 0.413115,0.401465 0.461309,0.682528c0.020727,0.12088 0.015921,0.247496 0.0143841,0.369001c-0.00252533,0.199646 -0.0593169,0.394009 -0.17149,0.559975c-0.111217,0.164551 -0.271365,0.293861 -0.455653,0.367914c-0.0802466,0.0322457 -0.161012,0.0494663 -0.245839,0.0640114c-0.0634311,0.00539878 -0.0628689,0.00719853 -0.127018,0.00719853ZM57.9537,46.3199c-0.085755,-0.00729883 -0.167689,-0.0176081 -0.250382,-0.0429322c-0.244899,-0.0749994 -0.45528,-0.244871 -0.580191,-0.468472c-0.0836105,-0.14967 -0.124824,-0.316749 -0.126986,-0.487695c-0.0023098,-0.182607 -0.00435931,-0.359129 0.0571226,-0.53314c0.104752,-0.296476 0.3494,-0.530953 0.650055,-0.623027c0.0953197,-0.0291913 0.193313,-0.0429322 0.292821,-0.0429322l7.10543e-14,2.1982c-0.0141464,0 -0.0282928,0 -0.0424393,0ZM57.9961,43.6499c-0.111155,-0.0759869 -0.207175,-0.166793 -0.282327,-0.279261c-0.0629216,-0.0941649 -0.109636,-0.198981 -0.137593,-0.308729c-0.0849125,-0.333328 0.011446,-0.695533 0.250764,-0.942604c0.0590833,-0.0609975 0.125943,-0.114401 0.19849,-0.158543c0.0523965,-0.031881 0.108432,-0.057089 0.162162,-0.0865197c0.0609632,-0.033393 0.121096,-0.0665028 0.186614,-0.0907875c0.106193,-0.0393609 0.218986,-0.0604854 0.332225,-0.0622209c0.227258,-0.00348294 0.452545,0.072253 0.631548,0.212311c0.0594309,0.0465009 0.11073,0.0992579 0.15886,0.157032c-0.0451719,0.0529129 -0.0934478,0.102924 -0.142429,0.152282c-0.368327,0.358054 -0.819215,0.62431 -1.31346,0.765928l-0.0448501,0.0119811c1.42109e-14,0.20971 1.42109e-14,0.41942 2.84217e-14,0.62913ZM52.9961,43.4409l-1.42109e-14,-0.420151c-0.0759478,-0.0202884 -0.1507,-0.0432296 -0.225035,-0.0687998c-0.54163,-0.196613 -1.03777,-0.53719 -1.38655,-0.99913l0.0273977,-0.0299012c0.0633146,-0.0582963 0.126268,-0.111742 0.200803,-0.155603c0.171173,-0.100727 0.371366,-0.148596 0.569588,-0.136197c0.14135,0.00884153 0.280396,0.048034 0.405556,0.114313c0.044187,0.0233993 0.0848896,0.0511082 0.127373,0.077055c0.0939096,0.0573554 0.186893,0.110984 0.267291,0.187966c0.248447,0.23789 0.358368,0.596212 0.28606,0.932499c-0.0304735,0.141725 -0.0928871,0.264828 -0.173375,0.384036c-0.0475936,0.0590009 -0.0468246,0.0593111 -0.0991054,0.113912ZM59.9537,41.2206c-0.085755,-0.00729883 -0.167689,-0.0176081 -0.250382,-0.0429322c-0.244899,-0.0749994 -0.45528,-0.244871 -0.580191,-0.468472c-0.0836105,-0.14967 -0.124824,-0.316749 -0.126986,-0.487695c-0.0023098,-0.182607 -0.00435931,-0.359129 0.0571226,-0.53314c0.104752,-0.296476 0.3494,-0.530953 0.650055,-0.623027c0.0953215,-0.0291919 0.193316,-0.0429322 0.292826,-0.0429322c0,0.633668 0.00922491,1.26741 -0.000760688,1.901c-0.00226571,0.0480339 -0.0059723,0.0954419 -0.0112028,0.143244c-0.00590897,0.0421175 -0.00685468,0.0522886 -0.014643,0.0940964c-0.00290181,0.015577 -0.00616336,0.0310853 -0.00939601,0.046597c-0.00198067,0.00950415 0.00137477,0.0132579 -0.00644187,0.0132579ZM51.0056,41.0442c-0.0061604,-0.0563004 -0.00861081,-0.112418 -0.00950293,-0.169022l-1.42109e-14,-2.02918c0.0995094,0 0.197503,0.0137406 0.292824,0.0429322c0.300654,0.0920744 0.545303,0.326551 0.650055,0.623027c0.0614819,0.174011 0.0594324,0.350532 0.0571226,0.53314c-0.0021623,0.170946 -0.0433754,0.338025 -0.126986,0.487695c-0.110846,0.198423 -0.289263,0.355449 -0.500158,0.440194c-0.0802466,0.0322457 -0.161012,0.0494663 -0.245839,0.0640114c-0.0589638,0.00501856 -0.0584572,0.00719853 -0.117516,0.00719853ZM59.9537,38.0206c-0.085755,-0.00729883 -0.167689,-0.0176081 -0.250382,-0.0429322c-0.189905,-0.0581576 -0.360442,-0.173421 -0.485213,-0.327947c-0.144067,-0.178424 -0.219075,-0.399775 -0.221964,-0.62822c-0.00153691,-0.121504 -0.00634294,-0.24812 0.0143841,-0.369001c0.0481932,-0.281064 0.218482,-0.533014 0.461309,-0.682528c0.0964379,-0.0593792 0.202917,-0.102166 0.313628,-0.126026c0.0738685,-0.0159199 0.0931493,-0.0151527 0.168238,-0.0215437l0.0105506,0c0.0206659,0.124734 0.0302947,0.249446 0.0318938,0.375814l0,1.82238c-0.0141481,0 -0.0282962,0 -0.0424443,0ZM50.9961,37.8442c0,-0.567709 -0.00645969,-1.13546 0.000723561,-1.70313c0.00215321,-0.0566686 0.00569817,-0.112843 0.0107142,-0.16933c0.0125037,-0.109383 0.0313147,-0.216529 0.0574165,-0.323494l0.0581647,0.00495054c0.0848271,0.0145451 0.165592,0.0317657 0.245839,0.0640114c0.184288,0.0740531 0.344436,0.203364 0.455653,0.367914c0.112173,0.165966 0.168965,0.360328 0.17149,0.559975c0.00153691,0.121504 0.00634294,0.24812 -0.0143841,0.369001c-0.0432854,0.252441 -0.185059,0.482696 -0.390983,0.634996c-0.0910548,0.0673438 -0.193522,0.119007 -0.30181,0.15217c-0.0722523,0.022127 -0.0915287,0.0229978 -0.165805,0.0357337c-0.0634313,0.0053988 -0.0628691,0.00719853 -0.127019,0.00719853ZM52.299,35.1735c-0.0859368,-0.00469672 -0.168146,-0.0125182 -0.251568,-0.0353248c-0.215857,-0.0590132 -0.396512,-0.18813 -0.533971,-0.362665c0.0420499,-0.049731 0.086068,-0.0972213 0.13156,-0.143811c0.101789,-0.0993908 0.209867,-0.190799 0.327871,-0.270518c0.269823,-0.182283 0.579342,-0.303653 0.901261,-0.352827c0.204669,-0.0312636 0.409089,-0.0255262 0.615831,-0.0255262l0.00641505,0.0762661c-0.00011387,0.114851 -0.00931155,0.224744 -0.0432646,0.335221c-0.0583459,0.189847 -0.173778,0.36027 -0.328428,0.484888c-0.0661242,0.0532834 -0.139034,0.098076 -0.216451,0.132978c-0.0466804,0.0210452 -0.0947945,0.0359834 -0.142207,0.0546773c-0.0447292,0.017636 -0.0874336,0.0380079 -0.133241,0.0535696c-0.0715486,0.0243064 -0.0907898,0.0257609 -0.164646,0.0407419c-0.0843196,0.00975827 -0.0840419,0.00974985 -0.169163,0.0123306ZM58.839,35.2517c-0.0859865,-0.00367587 -0.168283,-0.0105206 -0.251969,-0.0323349c-0.0836865,-0.0218144 -0.158852,-0.0560148 -0.235691,-0.0947823l0.00799333,0.00446817c-0.0580106,-0.0306076 -0.11925,-0.054722 -0.176873,-0.0860005c-0.0497787,-0.0270202 -0.0971719,-0.0582206 -0.141668,-0.0932647c-0.224028,-0.176439 -0.364223,-0.446296 -0.379785,-0.731036c-0.00437396,-0.0800312 0.00315797,-0.157068 0.0156874,-0.235874c0.0728671,0 0.145245,0.000117372 0.218022,0.00288264c0.166933,0.0105786 0.331376,0.0354094 0.492485,0.0811593c0.32733,0.0929514 0.631329,0.262658 0.883086,0.491475c0.105316,0.0957199 0.199186,0.201537 0.285692,0.314368l0.0310897,0.0426274c-0.050951,0.0531327 -0.0616581,0.067606 -0.119788,0.114517c-0.0881337,0.0711238 -0.188331,0.127062 -0.295125,0.164762c-0.0712549,0.0251544 -0.0904774,0.0268373 -0.16415,0.0426943c-0.0844734,0.0107941 -0.0841978,0.0107589 -0.169005,0.0143386ZM55.4843,34.9829c-0.143707,-0.0061046 -0.279806,-0.0290607 -0.411901,-0.0887715c-0.355221,-0.16057 -0.587198,-0.522083 -0.587198,-0.911228l2.1982,0c0,0.359208 -0.197264,0.697525 -0.511404,0.873014c-0.126556,0.0706982 -0.260217,0.105114 -0.402889,0.123383c-0.142511,0.00605377 -0.142045,0.00360251 -0.284806,0.00360251Z" style="" fill="#000" fill-rule="nonzero"></path><path d="M67.5027,32.9884c-0.148642,-0.00188093 -0.296057,-0.012888 -0.442541,-0.0390473c-0.1626,-0.0290374 -0.319919,-0.0757284 -0.474146,-0.134361l-0.0564258,-0.0230541l-0.0480565,-0.0210232c0.00978144,-0.0410552 0.0214441,-0.080786 0.0348172,-0.120821c0.0319198,-0.0831254 0.0704512,-0.161959 0.121591,-0.235129c0.127188,-0.181979 0.314623,-0.318337 0.526918,-0.38333c0.0710396,-0.0217483 0.143181,-0.0336795 0.216961,-0.0409308c0.0534526,-0.00287425 0.106628,-0.00152903 0.160087,-0.00288009c0.0470294,-0.00118857 0.0937176,-0.00416137 0.140811,-0.00401477c0.103858,0.00492247 0.205021,0.0209795 0.303508,0.0552619c0.223838,0.0779155 0.415765,0.235983 0.535145,0.440734c0.0448845,0.0769827 0.0768179,0.158574 0.101767,0.24389c-0.0485526,0.0241275 -0.0976498,0.0465134 -0.147322,0.0682434c-0.231528,0.094596 -0.469022,0.155151 -0.717502,0.183555c-0.0852724,0.0075722 -0.170009,0.011824 -0.25561,0.0129072ZM69.3959,32.1211c-0.315665,-0.168744 -0.5126,-0.522003 -0.511114,-0.87649c0.000309045,-0.0737508 0.00880769,-0.147449 0.025293,-0.219334c0.012499,-0.0545027 0.0315138,-0.107132 0.0453629,-0.161276c0.0111708,-0.0436733 0.0212123,-0.0872392 0.0357524,-0.129985c0.0380135,-0.111753 0.0959318,-0.216556 0.170326,-0.308204c0.195842,-0.241261 0.494515,-0.374796 0.803898,-0.369182c0.00971121,0.0586144 0.0176088,0.117136 0.0243567,0.176167c0.0151395,0.17049 0.0173045,0.340748 1.42109e-14,0.511221c-0.0458265,0.451453 -0.217157,0.874646 -0.483754,1.24018c-0.0357142,0.0465826 -0.0722215,0.0920823 -0.11012,0.136904ZM65.6829,32.2025c-0.358647,-0.385267 -0.593701,-0.872383 -0.660192,-1.39565c-0.0269542,-0.21212 -0.0242512,-0.424666 0,-0.636817l0.000694865,-0.00496586c0.296873,-0.0259789 0.600147,0.0984741 0.802239,0.31497c0.0814263,0.0872296 0.142812,0.187069 0.191212,0.2957c0.0307048,0.0780286 0.0494552,0.149895 0.076573,0.228438c0.000799934,0.00231691 -0.00342315,-0.00918678 -0.00261318,-0.00687336c0.00487349,0.0139196 0.00986964,0.0277959 0.0148045,0.0416938c0.0304226,0.099424 0.0494544,0.20007 0.0504275,0.304348c0.00207162,0.222011 -0.0713969,0.441847 -0.206535,0.618003c-0.0543365,0.0708292 -0.117875,0.131345 -0.1875,0.186852c-0.0259735,0.01889 -0.0515285,0.037751 -0.0791116,0.0542965ZM65.9924,29.4888c-0.0592279,-0.00188138 -0.117581,-0.00630329 -0.17591,-0.017317c-0.176673,-0.0333592 -0.334698,-0.114629 -0.472034,-0.229247l-0.00614127,-0.00560437c0.276022,-0.466883 0.69041,-0.839898 1.19128,-1.05173c0.171003,-0.0723225 0.348438,-0.12252 0.530571,-0.157415l0.0413267,-0.006847c0.110385,0.275561 0.0778176,0.601882 -0.0701567,0.856725c-0.0599193,0.103194 -0.137711,0.190856 -0.227676,0.268634c-0.0635509,0.050206 -0.132216,0.0926151 -0.19782,0.139998c-0.00157348,0.00113647 0.00619108,-0.00468422 0.00462112,-0.00354288c-0.0119289,0.00867216 -0.0237995,0.0174242 -0.0356993,0.0261363c-0.150891,0.100531 -0.313562,0.158872 -0.493952,0.177151c-0.044173,0.00250912 -0.0438332,0.00250487 -0.0884137,0.00306186ZM68.9274,29.4248c-0.181306,-0.00160059 -0.348656,-0.0447228 -0.508159,-0.130941c-0.0576743,-0.0345561 -0.113125,-0.0725045 -0.170721,-0.107234c-0.00273885,-0.00165146 0.0111213,0.00632062 0.00837487,0.00468179c-0.0384068,-0.0229177 -0.0381301,-0.0224369 -0.0752346,-0.0465414c-0.0724514,-0.0517639 -0.139088,-0.10885 -0.197079,-0.17672c-0.153964,-0.180193 -0.239941,-0.413494 -0.239728,-0.650505c9.37269e-05,-0.104283 0.0182762,-0.205086 0.0478594,-0.304763l0.00249403,-0.00721635c0.535053,0.0611624 1.0428,0.301868 1.43227,0.673196c0.145541,0.13876 0.270872,0.294434 0.381296,0.462197l0.00122312,0.00195938c-0.148267,0.148931 -0.345409,0.236534 -0.550374,0.27133c-0.0442362,0.00550978 -0.0876751,0.0089778 -0.132225,0.0105564Z" style="" fill="#000" fill-rule="nonzero"></path><path d="M55.4961,32.9829c-0.148642,-0.00188093 -0.296057,-0.012888 -0.442541,-0.0390473c-0.1626,-0.0290374 -0.319919,-0.0757284 -0.474146,-0.134361l-0.0564258,-0.0230541l-0.0480565,-0.0210232c0.00978144,-0.0410552 0.0214441,-0.080786 0.0348172,-0.120821c0.0319198,-0.0831254 0.0704512,-0.161959 0.121591,-0.235129c0.127188,-0.181979 0.314623,-0.318337 0.526918,-0.38333c0.0710396,-0.0217483 0.143181,-0.0336795 0.216961,-0.0409308c0.0534526,-0.00287425 0.106628,-0.00152903 0.160087,-0.00288009c0.0470294,-0.00118857 0.0937176,-0.00416137 0.140811,-0.00401477c0.103858,0.00492247 0.205021,0.0209795 0.303508,0.0552619c0.223838,0.0779155 0.415765,0.235983 0.535145,0.440734c0.0448845,0.0769827 0.0768179,0.158574 0.101767,0.24389c-0.0485526,0.0241275 -0.0976498,0.0465134 -0.147322,0.0682434c-0.231528,0.094596 -0.469022,0.155151 -0.717502,0.183555c-0.0852724,0.0075722 -0.170009,0.011824 -0.25561,0.0129072ZM57.3893,32.1156c-0.315665,-0.168744 -0.5126,-0.522003 -0.511114,-0.87649c0.000309045,-0.0737508 0.00880769,-0.147449 0.025293,-0.219334c0.012499,-0.0545027 0.0315138,-0.107132 0.0453629,-0.161276c0.0111708,-0.0436733 0.0212123,-0.0872392 0.0357524,-0.129985c0.0380135,-0.111753 0.0959318,-0.216556 0.170326,-0.308204c0.195842,-0.241261 0.494515,-0.374796 0.803898,-0.369182c0.00971121,0.0586144 0.0176088,0.117136 0.0243567,0.176167c0.0151395,0.17049 0.0173045,0.340748 1.42109e-14,0.511221c-0.0458265,0.451453 -0.217157,0.874646 -0.483754,1.24018c-0.0357142,0.0465826 -0.0722215,0.0920823 -0.11012,0.136904ZM53.6764,32.1969c-0.358647,-0.385267 -0.593701,-0.872383 -0.660192,-1.39565c-0.0269542,-0.21212 -0.0242512,-0.424666 0,-0.636817l0.000694865,-0.00496586c0.296873,-0.0259789 0.600147,0.0984741 0.802239,0.31497c0.0814263,0.0872296 0.142812,0.187069 0.191212,0.2957c0.0307048,0.0780286 0.0494552,0.149895 0.076573,0.228438c0.000799934,0.00231691 -0.00342315,-0.00918678 -0.00261318,-0.00687336c0.00487349,0.0139196 0.00986964,0.0277959 0.0148045,0.0416938c0.0304226,0.099424 0.0494544,0.20007 0.0504275,0.304348c0.00207162,0.222011 -0.0713969,0.441847 -0.206535,0.618003c-0.0543365,0.0708292 -0.117875,0.131345 -0.1875,0.186852c-0.0259735,0.01889 -0.0515285,0.037751 -0.0791116,0.0542965ZM53.9858,29.4832c-0.0592279,-0.00188138 -0.117581,-0.00630329 -0.17591,-0.017317c-0.176673,-0.0333592 -0.334698,-0.114629 -0.472034,-0.229247l-0.00614127,-0.00560437c0.276022,-0.466883 0.69041,-0.839898 1.19128,-1.05173c0.171003,-0.0723225 0.348438,-0.12252 0.530571,-0.157415l0.0413267,-0.006847c0.110385,0.275561 0.0778176,0.601882 -0.0701567,0.856725c-0.0599193,0.103194 -0.137711,0.190856 -0.227676,0.268634c-0.0635509,0.050206 -0.132216,0.0926151 -0.19782,0.139998c-0.00157348,0.00113647 0.00619108,-0.00468422 0.00462112,-0.00354288c-0.0119289,0.00867216 -0.0237995,0.0174242 -0.0356993,0.0261363c-0.150891,0.100531 -0.313562,0.158872 -0.493952,0.177151c-0.044173,0.00250912 -0.0438332,0.00250487 -0.0884137,0.00306186ZM56.9209,29.4192c-0.181306,-0.00160059 -0.348656,-0.0447228 -0.508159,-0.130941c-0.0576743,-0.0345561 -0.113125,-0.0725045 -0.170721,-0.107234c-0.00273885,-0.00165146 0.0111213,0.00632062 0.00837487,0.00468179c-0.0384068,-0.0229177 -0.0381301,-0.0224369 -0.0752346,-0.0465414c-0.0724514,-0.0517639 -0.139088,-0.10885 -0.197079,-0.17672c-0.153964,-0.180193 -0.239941,-0.413494 -0.239728,-0.650505c9.37269e-05,-0.104283 0.0182762,-0.205086 0.0478594,-0.304763l0.00249403,-0.00721635c0.535053,0.0611624 1.0428,0.301868 1.43227,0.673196c0.145541,0.13876 0.270872,0.294434 0.381296,0.462197l0.00122312,0.00195938c-0.148267,0.148931 -0.345409,0.236534 -0.550374,0.27133c-0.0442362,0.00550978 -0.0876751,0.0089778 -0.132225,0.0105564Z" style="" fill="#000" fill-rule="nonzero"></path><path d="M74,41c-0.0888313,-0.00387846 -0.172233,-0.0220885 -0.25,-0.0669873c-0.20754,-0.119823 -0.30181,-0.378828 -0.219846,-0.604023c0.0199061,-0.0546916 0.0494129,-0.105799 0.0868241,-0.150384c0.0873323,-0.104079 0.206739,-0.159233 0.339444,-0.176704c3.34467,-0.146032 6.69572,-0.00190265 10.0436,-0.00190265c0.0888313,0.00387846 0.172233,0.0220885 0.25,0.0669873c0.050404,0.0291008 0.095611,0.0670339 0.133022,0.111619c0.154042,0.18358 0.154042,0.459208 0,0.642788c-0.0873323,0.104079 -0.206739,0.159233 -0.339444,0.176704c-3.34467,0.146032 -6.69572,0.00190265 -10.0436,0.00190265Z" style="" fill="#000" fill-rule="nonzero"></path></g></svg>