<svg xmlns="http://www.w3.org/2000/svg" xmlns:xlink="http://www.w3.org/1999/xlink" version="1.1" x="0px" y="0px" viewBox="0 0 64 64" enable-background="new 0 0 64 64" xml:space="preserve"><g display="none"><circle display="inline" fill="#000000" cx="32" cy="32" r="32"></circle><rect x="8" y="19.375" display="inline" width="48" height="29"></rect><path display="inline" fill="#000000" d="M56,19.385v-3.072c0-1.616-1.322-2.939-2.939-2.939H10.939   C9.322,13.375,8,14.697,8,16.314v3.072H56z"></path><circle display="inline" fill="#000000" cx="12.143" cy="16.38" r="0.837"></circle><circle display="inline" fill="#000000" cx="14.653" cy="16.38" r="0.837"></circle><circle display="inline" fill="#000000" cx="17.163" cy="16.38" r="0.837"></circle><path display="inline" fill="#000000" d="M48.531,17.85H25.51c-0.808,0-1.469-0.661-1.469-1.469v0c0-0.808,0.661-1.469,1.469-1.469   h23.02c0.808,0,1.469,0.661,1.469,1.469v0C50,17.188,49.339,17.85,48.531,17.85z"></path><rect x="17.003" y="35.281" display="inline" fill="#000000" width="13.08" height="1.258"></rect><rect x="17.003" y="39.207" display="inline" fill="#000000" width="13.08" height="1.258"></rect><rect x="17.003" y="43.132" display="inline" fill="#000000" width="13.08" height="1.258"></rect><path display="inline" fill="#000000" d="M18.258,24.543h27.485v6.722H18.258V24.543 M17,23.285v9.238h30v-9.238H17L17,23.285z"></path><path display="inline" fill="#000000" d="M34.516,36.296h11.226v6.716H34.516V36.296 M33.258,35.038v9.231H47v-9.231H33.258   L33.258,35.038z"></path></g><g display="none"><g display="inline"><rect y="16.667" width="64" height="38.667"></rect><path fill="#000000" d="M64,16.681v-4.096c0-2.155-1.763-3.918-3.918-3.918H3.918C1.763,8.667,0,10.43,0,12.585v4.096H64z"></path><circle fill="#000000" cx="5.524" cy="12.674" r="1.116"></circle><circle fill="#000000" cx="8.871" cy="12.674" r="1.116"></circle><circle fill="#000000" cx="12.218" cy="12.674" r="1.116"></circle><path fill="#000000" d="M54.041,14.633H23.347c-1.078,0-1.959-0.882-1.959-1.959v0c0-1.078,0.882-1.959,1.959-1.959h30.694    c1.078,0,1.959,0.882,1.959,1.959v0C56,13.751,55.118,14.633,54.041,14.633z"></path><rect x="12.004" y="37.875" fill="#000000" width="17.44" height="1.677"></rect><rect x="12.004" y="43.109" fill="#000000" width="17.44" height="1.677"></rect><rect x="12.004" y="48.343" fill="#000000" width="17.44" height="1.677"></rect><path fill="#000000" d="M13.677,23.557h36.646v8.963H13.677V23.557 M12,21.88v12.317h40V21.88H12L12,21.88z"></path><path fill="#000000" d="M35.354,39.228h14.969v8.954H35.354V39.228 M33.677,37.551v12.308H52V37.551H33.677L33.677,37.551z"></path></g></g><g><g><g><path d="M60.082,10.067c1.389,0,2.518,1.13,2.518,2.518v4.096v37.253H1.4V16.667v-4.082c0-1.389,1.13-2.518,2.518-2.518H60.082      M60.082,8.667H3.918C1.763,8.667,0,10.43,0,12.585v4.082v0.014v38.653h64V16.681v-0.014v-4.082     C64,10.43,62.237,8.667,60.082,8.667L60.082,8.667z"></path></g><circle cx="5.524" cy="13.674" r="1.116"></circle><circle cx="8.871" cy="13.674" r="1.116"></circle><circle cx="12.218" cy="13.674" r="1.116"></circle><path d="M53.332,15.633H22.639c-1.078,0-1.959-0.882-1.959-1.959v0c0-1.078,0.882-1.959,1.959-1.959h30.694    c1.078,0,1.959,0.882,1.959,1.959v0C55.292,14.751,54.41,15.633,53.332,15.633z"></path></g><rect x="12.004" y="36.977" width="17.44" height="1.677"></rect><rect x="12.004" y="42.211" width="17.44" height="1.677"></rect><rect x="12.004" y="47.445" width="17.44" height="1.677"></rect><path d="M13.677,22.659h36.646v8.963H13.677V22.659 M12,20.982v12.317h40V20.982H12L12,20.982z"></path><path d="M35.354,38.33h14.969v8.954H35.354V38.33 M33.677,36.653v12.308H52V36.653H33.677L33.677,36.653z"></path></g><g display="none"><rect x="-321" y="-22" display="inline" fill="#000000" width="794" height="399"></rect></g><g display="none"><g display="inline"><rect x="13.677" y="22.742" width="36.646" height="8.963"></rect><rect x="35.354" y="38.413" width="14.969" height="8.954"></rect><path d="M60.082,8.667H3.918C1.763,8.667,0,10.43,0,12.585v4.082v0.014v38.653h64V16.681v-0.014v-4.082    C64,10.43,62.237,8.667,60.082,8.667z M5.524,13.789c-0.616,0-1.116-0.5-1.116-1.116s0.5-1.116,1.116-1.116s1.116,0.5,1.116,1.116    S6.14,13.789,5.524,13.789z M8.871,13.789c-0.616,0-1.116-0.5-1.116-1.116s0.499-1.116,1.116-1.116s1.116,0.5,1.116,1.116    S9.487,13.789,8.871,13.789z M11.102,12.674c0-0.616,0.5-1.116,1.116-1.116s1.116,0.5,1.116,1.116s-0.499,1.116-1.116,1.116    S11.102,13.29,11.102,12.674z M29.444,49.205h-17.44v-1.677h17.44V49.205z M29.444,43.971h-17.44v-1.677h17.44V43.971z     M29.444,38.737h-17.44V37.06h17.44V38.737z M52,49.044H33.677V36.736H52V49.044z M52,33.382H12V21.065h40V33.382z M54.041,14.633    H23.347c-1.078,0-1.959-0.882-1.959-1.959c0-1.078,0.882-1.959,1.959-1.959h30.694c1.078,0,1.959,0.882,1.959,1.959    C56,13.751,55.118,14.633,54.041,14.633z"></path></g></g></svg>