<svg xmlns="http://www.w3.org/2000/svg" xmlns:xlink="http://www.w3.org/1999/xlink" version="1.1" x="0px" y="0px" viewBox="0 0 100 125" style="enable-background:new 0 0 100 100;" xml:space="preserve"><path d="M46,39c-3.9,0-7,3.1-7,7s3.1,7,7,7s7-3.1,7-7S49.9,39,46,39z M46,51c-2.8,0-5-2.2-5-5s2.2-5,5-5s5,2.2,5,5  S48.8,51,46,51z"/><path d="M81,40h-4c-0.6,0-1,0.4-1,1v10c0,0.6,0.4,1,1,1h1c-0.4,9.8-6.1,18.4-15,22.6v-6.3C69.7,63.1,74,55,74,46  c0-15.4-12.6-28-28-28S18,30.6,18,46c0,9,4.3,17.1,11,22.2V81c0,0.6,0.4,1,1,1h32c0.6,0,1-0.4,1-1v-4.3C73,72.5,79.6,62.9,80,52h1  c0.6,0,1-0.4,1-1V41C82,40.4,81.6,40,81,40z M61,80H31V69.6c4.3,2.8,9.5,4.4,15,4.4s10.7-1.6,15-4.4V80z M46,72  c-14.3,0-26-11.7-26-26s11.7-26,26-26s26,11.7,26,26S60.3,72,46,72z M80,50h-2v-8h2V50z"/><path d="M47,24c0-0.6-0.4-1-1-1c-12.7,0-23,10.3-23,23c0,0.6,0.4,1,1,1s1-0.4,1-1c0-11.6,9.4-21,21-21  C46.6,25,47,24.6,47,24z"/><text x="0" y="115" fill="#000000" font-size="5px" font-weight="bold" font-family="'Helvetica Neue', Helvetica, Arial-Unicode, Arial, Sans-serif">Created by Spicy Icons</text><text x="0" y="120" fill="#000000" font-size="5px" font-weight="bold" font-family="'Helvetica Neue', Helvetica, Arial-Unicode, Arial, Sans-serif">from the Noun Project</text></svg>